<?xml version="1.0" ?><!DOCTYPE svg  PUBLIC '-//W3C//DTD SVG 1.1//EN'  'http://www.w3.org/Graphics/SVG/1.1/DTD/svg11.dtd'><svg height="100%" style="fill-rule:evenodd;clip-rule:evenodd;stroke-linejoin:round;stroke-miterlimit:2;" version="1.1" viewBox="0 0 512 512" width="100%" xml:space="preserve" xmlns="http://www.w3.org/2000/svg" xmlns:serif="http://www.serif.com/" xmlns:xlink="http://www.w3.org/1999/xlink"><g><path d="M259.167,491.305c-1.293,0 -2.561,-0.037 -3.831,-0.099l-0.003,0c-0.809,0.063 -1.655,0.099 -2.502,0.099c-29.703,0 -48.768,-13.477 -67.202,-26.512c-12.731,-8.994 -24.743,-17.486 -38.897,-19.843c-6.906,-1.143 -13.781,-1.724 -20.424,-1.724c-11.968,0 -21.41,1.848 -28.302,3.196c-4.189,0.819 -7.803,1.523 -10.549,1.523c-2.87,0 -5.979,-0.62 -7.33,-5.236c-1.173,-4 -2.023,-7.874 -2.84,-11.621c-2.105,-9.644 -3.6,-15.576 -7.642,-16.196c-47.111,-7.277 -60.594,-17.199 -63.6,-24.239c-0.427,-1.007 -0.669,-2.016 -0.725,-3.014c-0.154,-2.704 1.763,-5.093 4.435,-5.53c72.42,-11.925 104.895,-85.943 106.243,-89.086c0.037,-0.087 0.077,-0.171 0.117,-0.258c4.433,-8.982 5.3,-16.779 2.588,-23.17c-4.969,-11.712 -21.178,-16.861 -31.909,-20.264c-2.624,-0.831 -5.113,-1.616 -7.077,-2.391c-21.408,-8.465 -23.19,-17.152 -22.35,-21.581c1.435,-7.545 11.519,-12.802 19.674,-12.802c2.235,0 4.204,0.396 5.859,1.169c9.631,4.512 18.311,6.798 25.801,6.798c10.349,0 14.866,-4.349 15.418,-4.92c-0.263,-4.901 -0.589,-10.019 -0.923,-15.301c-2.158,-34.239 -4.83,-76.782 6.003,-101.066c32.465,-72.794 101.312,-78.448 121.638,-78.448c0.521,0 8.912,-0.09 8.912,-0.09l1.203,-0.006c20.373,0 89.37,5.667 121.853,78.498c10.835,24.299 8.155,66.877 5.995,101.09l-0.09,1.488c-0.298,4.764 -0.589,9.395 -0.83,13.828c0.517,0.528 4.672,4.529 14.054,4.887l0.01,0c7.13,-0.273 15.324,-2.546 24.317,-6.758c2.635,-1.231 5.562,-1.489 7.555,-1.489c3.043,0 6.128,0.588 8.69,1.656l0.155,0.064c7.274,2.577 12.039,7.676 12.141,13.004c0.094,5.016 -3.735,12.558 -22.521,19.979c-1.947,0.765 -4.436,1.556 -7.071,2.391c-10.741,3.409 -26.945,8.552 -31.912,20.262c-2.713,6.387 -1.844,14.18 2.586,23.167c0.04,0.087 0.085,0.17 0.119,0.263c1.347,3.14 33.795,77.137 106.246,89.076c2.675,0.441 4.585,2.826 4.439,5.534c-0.062,1.014 -0.308,2.037 -0.741,3.03c-2.988,6.99 -16.461,16.9 -63.588,24.182c-3.85,0.591 -5.342,5.607 -7.64,16.128c-0.835,3.828 -1.681,7.589 -2.846,11.544c-1.003,3.432 -3.142,5.037 -6.74,5.037l-0.586,0c-2.497,0 -6.047,-0.446 -10.545,-1.33c-7.979,-1.56 -16.925,-2.998 -28.305,-2.998c-6.647,0 -13.526,0.581 -20.435,1.724c-14.138,2.357 -26.143,10.832 -38.849,19.815c-18.472,13.063 -37.534,26.54 -67.246,26.54Z" style="fill:#fff;fill-rule:nonzero;"/><path d="M260.952,15.387l-0.021,0c-0.441,0 -0.856,0 -1.25,0.009c0,0 -8.208,0.081 -8.859,0.081c-21.122,0 -92.702,5.885 -126.474,81.6c-11.358,25.472 -8.636,68.734 -6.451,103.499c0.257,4.099 0.53,8.354 0.763,12.467c-1.747,0.967 -4.937,2.17 -9.959,2.17c-6.703,0 -14.626,-2.115 -23.547,-6.296c-2.366,-1.109 -5.097,-1.664 -8.113,-1.664c-10.447,0 -22.942,6.872 -24.888,17.117c-1.402,7.375 1.897,18.137 25.612,27.502c2.139,0.847 4.713,1.662 7.429,2.521c9.798,3.111 24.606,7.81 28.624,17.275c2.081,4.904 1.25,11.216 -2.463,18.754c-0.082,0.17 -0.163,0.338 -0.237,0.515c-1.302,3.032 -32.644,74.477 -102.224,85.931c-5.351,0.884 -9.174,5.658 -8.878,11.071c0.092,1.61 0.474,3.213 1.132,4.769c5.223,12.208 27.254,21.154 67.365,27.379c1.34,1.813 2.732,8.217 3.587,12.12c0.838,3.85 1.702,7.821 2.935,12.009c1.209,4.119 4.349,9.041 12.422,9.041c3.261,0 7.108,-0.752 11.563,-1.627c6.683,-1.305 15.833,-3.093 27.288,-3.093c6.351,0 12.938,0.552 19.568,1.651c12.942,2.158 23.94,9.93 36.672,18.931c18.239,12.896 38.891,27.493 70.283,27.493c0.862,0 1.73,-0.025 2.587,-0.089c1.019,0.044 2.341,0.089 3.749,0.089c31.401,0 52.052,-14.6 70.276,-27.488c12.761,-9.013 23.752,-16.784 36.694,-18.936c6.619,-1.099 13.205,-1.651 19.56,-1.651c10.928,0 19.575,1.391 27.288,2.897c4.832,0.946 8.721,1.427 11.562,1.427l0.298,0.004l0.288,0c5.962,0 10.171,-3.15 11.839,-8.869c1.209,-4.102 2.076,-7.97 2.932,-11.886c0.849,-3.892 2.239,-10.267 3.574,-12.07c40.121,-6.228 62.149,-15.159 67.36,-27.317c0.67,-1.556 1.054,-3.171 1.145,-4.795c0.302,-5.415 -3.525,-10.183 -8.872,-11.064c-69.614,-11.474 -100.928,-82.902 -102.228,-85.933c-0.074,-0.174 -0.152,-0.347 -0.239,-0.515c-3.716,-7.536 -4.538,-13.844 -2.46,-18.748c4.016,-9.465 18.818,-14.164 28.615,-17.27c2.74,-0.87 5.316,-1.689 7.435,-2.526c17.354,-6.853 26.061,-15.27 25.877,-25.018c-0.15,-7.654 -6.114,-14.484 -15.589,-17.869l-0.029,-0.011c-3.188,-1.321 -6.972,-2.044 -10.677,-2.044c-2.533,0 -6.292,0.344 -9.802,1.987c-8.255,3.869 -15.673,5.971 -22.07,6.256c-4.241,-0.196 -7.016,-1.265 -8.599,-2.139c0.201,-3.525 0.427,-7.158 0.666,-10.952l0.089,-1.475c2.195,-34.787 4.92,-78.087 -6.449,-103.577c-33.784,-75.751 -105.518,-81.643 -126.699,-81.643Zm0,10.616c19.285,0.002 85.706,5.176 117.008,75.352c10.304,23.102 7.668,64.961 5.548,98.592c-0.337,5.332 -0.663,10.502 -0.929,15.445l-0.115,2.121l1.421,1.579c0.568,0.638 5.929,6.236 17.841,6.698l0.199,0.006l0.195,-0.006c7.877,-0.297 16.754,-2.737 26.395,-7.257c1.414,-0.666 3.304,-0.989 5.301,-0.989c2.281,0 4.699,0.428 6.696,1.269l0.298,0.122c5.052,1.768 8.626,5.11 8.686,8.128c0.03,1.715 -1.253,7.862 -19.165,14.936c-1.75,0.694 -4.057,1.425 -6.727,2.269c-11.655,3.705 -29.265,9.287 -35.192,23.246c-3.341,7.878 -2.432,17.16 2.71,27.595c2.119,4.938 35.382,79.892 110.262,92.23c-0.021,0.348 -0.105,0.741 -0.307,1.197c-1.272,2.991 -9.34,13.311 -59.527,21.058c-7.858,1.211 -9.784,10.011 -12.018,20.248c-0.796,3.661 -1.624,7.353 -2.75,11.18c-0.34,1.156 -0.406,1.224 -1.649,1.224l-0.586,0c-2.225,0 -5.61,-0.463 -9.529,-1.23c-7.114,-1.391 -16.869,-3.096 -29.321,-3.096c-6.952,0 -14.117,0.605 -21.3,1.795c-15.358,2.557 -27.854,11.395 -41.088,20.743c-17.762,12.561 -36.123,25.54 -64.142,25.54c-1.216,0 -2.415,-0.04 -3.612,-0.096l-0.316,-0.018l-0.318,0.03c-0.689,0.057 -1.38,0.084 -2.09,0.084c-28.013,0 -46.381,-12.979 -64.142,-25.536c-13.228,-9.352 -25.726,-18.19 -41.082,-20.747c-7.185,-1.19 -14.347,-1.795 -21.299,-1.795c-12.452,0 -22.205,1.897 -29.325,3.291c-3.915,0.77 -7.306,1.427 -9.526,1.427c-1.816,0 -1.853,-0.106 -2.237,-1.417c-1.124,-3.829 -1.95,-7.62 -2.748,-11.277c-2.237,-10.238 -4.171,-19.089 -12.018,-20.299c-50.193,-7.751 -58.255,-18.096 -59.53,-21.079c-0.201,-0.462 -0.285,-0.866 -0.304,-1.22c74.874,-12.335 108.139,-87.28 110.256,-92.231c5.143,-10.441 6.058,-19.718 2.715,-27.591c-5.923,-13.963 -23.536,-19.551 -35.193,-23.256c-2.67,-0.842 -4.977,-1.575 -6.728,-2.269c-15.134,-5.976 -19.783,-11.996 -19.086,-15.645c0.802,-4.209 8.094,-8.487 14.457,-8.487c1.432,0 2.682,0.229 3.609,0.666c10.338,4.838 19.78,7.3 28.051,7.3c13.016,0 18.81,-6.057 19.426,-6.744l1.411,-1.576l-0.116,-2.113c-0.266,-4.936 -0.588,-10.102 -0.927,-15.432c-2.119,-33.631 -4.752,-75.461 5.552,-98.569c31.181,-69.918 97.276,-75.305 116.79,-75.305c0.481,0 8.962,-0.084 8.962,-0.084c0.365,-0.005 0.745,-0.007 1.153,-0.007Z" style="fill:#040505;fill-rule:nonzero;"/></g></svg>